<?xml version="1.0" encoding="UTF-8" standalone="no"?>
<!DOCTYPE svg PUBLIC "-//W3C//DTD SVG 1.1//EN" "http://www.w3.org/Graphics/SVG/1.1/DTD/svg11.dtd">
<svg xmlns="http://www.w3.org/2000/svg" version="1.1" viewBox="0.00 0.00 1000.00 1000.00">
<path fill="#ffffff" d="
  M 779.24 499.73
  L 656.73 464.73
  A 1.24 1.23 -89.7 0 1 655.87 463.85
  Q 653.27 453.64 652.71 451.88
  Q 641.89 418.07 618.15 392.10
  Q 592.50 364.04 557.10 350.53
  C 481.74 321.77 397.29 353.47 358.94 424.42
  Q 340.19 459.12 340.09 499.25
  Q 340.00 538.68 339.97 574.01
  Q 339.96 587.18 341.22 593.92
  C 347.69 628.65 374.00 653.71 408.89 659.31
  Q 411.79 659.78 424.87 660.20
  C 484.25 662.13 533.80 709.10 539.28 768.09
  Q 540.06 776.51 540.06 788.78
  Q 540.05 844.01 539.89 895.83
  Q 539.88 899.84 539.59 904.62
  Q 539.59 904.63 539.60 904.63
  Q 539.72 904.63 539.60 904.63
  Q 539.59 904.63 539.59 904.62
  C 539.13 902.05 539.31 899.26 538.98 896.94
  Q 536.23 878.08 529.11 862.91
  C 510.41 823.07 472.34 796.31 428.40 793.33
  C 387.74 790.57 348.32 808.31 324.15 840.95
  C 320.62 845.72 317.56 851.12 313.82 855.72
  Q 285.14 891.00 240.48 899.23
  C 234.00 900.43 227.34 899.96 220.97 899.98
  C 158.51 900.21 106.22 853.06 100.68 791.22
  Q 99.93 782.94 99.94 771.49
  Q 100.06 502.44 99.98 221.56
  Q 99.97 177.90 126.86 144.49
  C 158.41 105.30 212.39 89.61 260.62 107.12
  Q 292.26 118.60 313.86 145.27
  Q 314.20 145.70 314.69 145.45
  Q 375.37 114.05 440.48 104.46
  Q 531.29 91.09 619.36 118.10
  Q 629.36 121.17 638.75 124.71
  Q 750.21 166.75 821.81 262.40
  Q 827.53 270.03 833.18 278.61
  Q 896.53 374.82 899.83 489.86
  Q 900.10 499.45 900.09 509.96
  Q 899.87 640.21 900.08 769.60
  Q 900.10 781.55 899.43 789.67
  Q 895.62 835.80 861.55 867.87
  Q 833.09 894.64 792.30 899.28
  Q 785.70 900.04 774.14 900.13
  Q 764.10 900.21 756.67 898.71
  C 705.33 888.40 666.04 845.73 660.80 793.93
  Q 659.92 785.25 659.93 773.81
  Q 660.07 657.28 659.97 534.64
  Q 659.97 534.35 660.25 534.27
  L 779.24 500.28
  Q 780.21 500.00 779.24 499.73
  Z"
/>
<circle fill="#ffffff" cx="499.99" cy="499.99" r="79.96"/>
</svg>
